HIERARCHY
ROOT hip
{
  OFFSET 0 0 0
  CHANNELS 6 Xposition Yposition Zposition Zrotation Yrotation Xrotation
  JOINT abdomen
  {
    OFFSET 0 20.6881 -0.73152
    CHANNELS 3 Zrotation Xrotation Yrotation
    JOINT chest
    {
      OFFSET 0 11.7043 -0.48768
      CHANNELS 3 Zrotation Xrotation Yrotation
      JOINT neck
      {
        OFFSET 0 22.1894 -2.19456
        CHANNELS 3 Zrotation Xrotation Yrotation
        JOINT head
        {
          OFFSET -0.24384 7.07133 1.2192
          CHANNELS 3 Zrotation Xrotation Yrotation
          JOINT leftEye
          {
            OFFSET 4.14528 8.04674 8.04672
            CHANNELS 3 Zrotation Xrotation Yrotation
            End Site
            {
              OFFSET 1 0 0
            }
          }
          JOINT rightEye
          {
            OFFSET -3.6576 8.04674 8.04672
            CHANNELS 3 Zrotation Xrotation Yrotation
            End Site
            {
              OFFSET 1 0 0
            }
          }
        }
      }
      JOINT rCollar
      {
        OFFSET -2.68224 19.2634 -4.8768
        CHANNELS 3 Zrotation Xrotation Yrotation
        JOINT rShldr
        {
          OFFSET -8.77824 -1.95073 1.46304
          CHANNELS 3 Zrotation Xrotation Yrotation
          JOINT rForeArm
          {
            OFFSET -28.1742 -1.7115 0.48768
            CHANNELS 3 Zrotation Xrotation Yrotation
            JOINT rHand
            {
              OFFSET -22.5879 0.773209 7.07136
              CHANNELS 3 Zrotation Xrotation Yrotation
              JOINT rThumb1
              {
                OFFSET -1.2192 -0.487915 3.41376
                CHANNELS 3 Zrotation Xrotation Yrotation
                JOINT rThumb2
                {
                  OFFSET -3.37035 -0.52449 3.41376
                  CHANNELS 3 Zrotation Xrotation Yrotation
                  End Site
                  {
                    OFFSET -1.78271 -1.18214 1.43049
                  }
                }
              }
              JOINT rIndex1
              {
                OFFSET -7.75947 0.938293 5.60832
                CHANNELS 3 Zrotation Xrotation Yrotation
                JOINT rIndex2
                {
                  OFFSET -2.54057 -0.884171 1.56538
                  CHANNELS 3 Zrotation Xrotation Yrotation
                  End Site
                  {
                    OFFSET -1.62519 -0.234802 1.16502
                  }
                }
              }
              JOINT rMid1
              {
                OFFSET -8.24714 1.18213 3.41376
                CHANNELS 3 Zrotation Xrotation Yrotation
                JOINT rMid2
                {
                  OFFSET -3.10165 -0.590103 1.0647
                  CHANNELS 3 Zrotation Xrotation Yrotation
                  End Site
                  {
                    OFFSET -2.48547 -0.328903 0.83742
                  }
                }
              }
              JOINT rRing1
              {
                OFFSET -8.82822 0.546677 1.51678
                CHANNELS 3 Zrotation Xrotation Yrotation
                JOINT rRing2
                {
                  OFFSET -2.60934 -0.819778 -0.0198488
                  CHANNELS 3 Zrotation Xrotation Yrotation
                  End Site
                  {
                    OFFSET -2.33842 -0.294052 0.168128
                  }
                }
              }
              JOINT rPinky1
              {
                OFFSET -8.27202 -0.0477905 -0.4584
                CHANNELS 3 Zrotation Xrotation Yrotation
                JOINT rPinky2
                {
                  OFFSET -1.82734 -0.647385 -0.700984
                  CHANNELS 3 Zrotation Xrotation Yrotation
                  End Site
                  {
                    OFFSET -1.69225 -0.51767 -0.607171
                  }
                }
              }
            }
          }
        }
      }
      JOINT lCollar
      {
        OFFSET 2.68224 19.2634 -4.8768
        CHANNELS 3 Zrotation Xrotation Yrotation
        JOINT lShldr
        {
          OFFSET 8.77824 -1.95073 1.46304
          CHANNELS 3 Zrotation Xrotation Yrotation
          JOINT lForeArm
          {
            OFFSET 28.1742 -1.7115 0.48768
            CHANNELS 3 Zrotation Xrotation Yrotation
            JOINT lHand
            {
              OFFSET 22.5879 0.773209 7.07136
              CHANNELS 3 Zrotation Xrotation Yrotation
              JOINT lThumb1
              {
                OFFSET 1.2192 -0.487915 3.41376
                CHANNELS 3 Zrotation Xrotation Yrotation
                JOINT lThumb2
                {
                  OFFSET 3.37035 -0.52449 3.41376
                  CHANNELS 3 Zrotation Xrotation Yrotation
                  End Site
                  {
                    OFFSET 1.78271 -1.18214 1.43049
                  }
                }
              }
              JOINT lIndex1
              {
                OFFSET 7.75947 0.938293 5.60832
                CHANNELS 3 Zrotation Xrotation Yrotation
                JOINT lIndex2
                {
                  OFFSET 2.54057 -0.884171 1.56538
                  CHANNELS 3 Zrotation Xrotation Yrotation
                  End Site
                  {
                    OFFSET 1.62519 -0.234802 1.16502
                  }
                }
              }
              JOINT lMid1
              {
                OFFSET 8.24714 1.18213 3.41376
                CHANNELS 3 Zrotation Xrotation Yrotation
                JOINT lMid2
                {
                  OFFSET 3.10165 -0.590103 1.0647
                  CHANNELS 3 Zrotation Xrotation Yrotation
                  End Site
                  {
                    OFFSET 2.48547 -0.328903 0.83742
                  }
                }
              }
              JOINT lRing1
              {
                OFFSET 8.82822 0.546677 1.51678
                CHANNELS 3 Zrotation Xrotation Yrotation
                JOINT lRing2
                {
                  OFFSET 2.60934 -0.819778 -0.0198488
                  CHANNELS 3 Zrotation Xrotation Yrotation
                  End Site
                  {
                    OFFSET 2.33842 -0.294052 0.168128
                  }
                }
              }
              JOINT lPinky1
              {
                OFFSET 8.27202 -0.0477905 -0.4584
                CHANNELS 3 Zrotation Xrotation Yrotation
                JOINT lPinky2
                {
                  OFFSET 1.82734 -0.647385 -0.700984
                  CHANNELS 3 Zrotation Xrotation Yrotation
                  End Site
                  {
                    OFFSET 1.69225 -0.51767 -0.607171
                  }
                }
              }
            }
          }
        }
      }
    }
  }
  JOINT rButtock
  {
    OFFSET -8.77824 4.35084 1.2192
    CHANNELS 3 Zrotation Xrotation Yrotation
    JOINT rThigh
    {
      OFFSET 0 -1.70687 -2.19456
      CHANNELS 3 Zrotation Xrotation Yrotation
      JOINT rShin
      {
        OFFSET 0 -36.8199 0.73152
        CHANNELS 3 Zrotation Xrotation Yrotation
        JOINT rFoot
        {
          OFFSET 0.73152 -45.1104 -5.12064
          CHANNELS 3 Zrotation Xrotation Yrotation
          End Site
          {
            OFFSET -1.1221 -3.69964 12.103
          }
        }
      }
    }
  }
  JOINT lButtock
  {
    OFFSET 8.77824 4.35084 1.2192
    CHANNELS 3 Zrotation Xrotation Yrotation
    JOINT lThigh
    {
      OFFSET 0 -1.70687 -2.19456
      CHANNELS 3 Zrotation Xrotation Yrotation
      JOINT lShin
      {
        OFFSET 0 -36.8199 0.73152
        CHANNELS 3 Zrotation Xrotation Yrotation
        JOINT lFoot
        {
          OFFSET -0.73152 -45.1104 -5.12064
          CHANNELS 3 Zrotation Xrotation Yrotation
          End Site
          {
            OFFSET 1.1221 -3.69964 12.103
          }
        }
      }
    }
  }
}
MOTION
Frames:	4
Frame Time:	0.00833333
-0.387318 82.1126 -176.143 -5.3046 0.3426 11.0827 8.21273 6.22942 6.77085 4.72421 -1.56627 2.04967 -9.25309 -1.27275 -0.89092 -6.8094 -8.72291 0.533979 -0.0 0.0 0.0 -0.0 0.0 0.0 1.07046e-13 -3.49776e-14 4.91992e-15 71.5221 -17.5791 3.21036 -4.66966 -1.4832 8.12036 -0.0342016 5.27135 0.742958 -9.33807e-11 -2.17379e-10 1.85999e-10 -1.60047e-10 -3.7473e-10 3.22005e-10 -9.33759e-11 -2.17379e-10 1.85992e-10 7.73091 5.47488 0.417314 -9.33803e-11 -2.17379e-10 1.85992e-10 2.90554 0.965183 0.102902 -9.33727e-11 -2.17377e-10 1.85996e-10 10.2786 0.731801 0.0259123 -9.33861e-11 -2.17374e-10 1.86008e-10 2.22167 -0.733487 -0.20892 1.06854e-13 -3.49958e-14 4.62174e-15 -87.0298 24.6369 11.1974 15.3201 -8.07045 -28.2499 0.0370764 5.4876 -0.773623 2.67478e-10 -1.27308e-10 -2.48847e-11 4.64885e-10 -2.20791e-10 -4.34018e-11 2.67471e-10 -1.27312e-10 -2.48688e-11 -7.73091 5.47488 -0.417314 2.67478e-10 -1.27313e-10 -2.48783e-11 -2.90554 0.965183 -0.102902 2.67475e-10 -1.27311e-10 -2.48823e-11 -10.2786 0.731801 -0.0259123 2.67484e-10 -1.27307e-10 -2.48974e-11 -2.22167 -0.733487 0.20892 -2.03217e-16 0.0 -3.88251e-19 11.4335 7.29543 3.32802 0.0857391 4.80434 0.693013 -4.18229 -12.104 -15.8613 2.03217e-16 0.0 3.88251e-19 2.69615 -45.1215 -2.20266 0.113636 22.1604 -0.513343 0.0239637 -8.35669 -2.29008
-0.342672 82.082 -175.506 -5.3525 0.135 11.1793 8.09793 6.00686 6.93673 4.72268 -1.5051 2.09088 -9.30918 -1.26194 -0.88431 -6.61783 -8.68147 0.578853 -0.0 0.0 0.0 -0.0 0.0 0.0 6.44281e-14 8.48064e-15 7.42686e-15 71.5391 -17.5036 3.26693 -4.67218 -1.48414 8.12489 -0.0327377 5.15288 0.726173 2.09986e-11 4.01599e-10 -8.27837e-10 3.30319e-11 6.95353e-10 -1.43086e-09 2.10003e-11 4.01598e-10 -8.27843e-10 7.73091 5.47488 0.417314 2.09986e-11 4.01599e-10 -8.27842e-10 2.90554 0.965183 0.102902 2.10057e-11 4.016e-10 -8.27838e-10 10.2786 0.731801 0.0259123 2.09921e-11 4.01604e-10 -8.27827e-10 2.22167 -0.733487 -0.20892 6.42396e-14 8.46459e-15 7.11936e-15 -87.0255 24.3943 11.3246 15.2423 -8.00172 -28.0887 0.0387114 5.607 -0.790563 3.92471e-10 1.62598e-10 6.90757e-10 6.84602e-10 2.8087e-10 1.19398e-09 3.92465e-10 1.62595e-10 6.90771e-10 -7.73091 5.47488 -0.417314 3.92471e-10 1.62595e-10 6.90762e-10 -2.90554 0.965183 -0.102902 3.92467e-10 1.62597e-10 6.90759e-10 -10.2786 0.731801 -0.0259123 3.92476e-10 1.626e-10 6.90747e-10 -2.22167 -0.733487 0.20892 -2.03217e-16 0.0 -3.88251e-19 11.3885 7.624 3.40721 0.0839755 4.80827 0.690567 -4.05939 -11.777 -15.7129 2.03217e-16 0.0 3.88251e-19 2.64076 -44.797 -2.56888 0.113997 22.2299 -0.515046 0.0113312 -8.29057 -2.33894
-0.395218 82.0144 -174.896 -5.5787 -0.0744 11.1968 7.98106 5.7396 7.12913 4.7431 -1.44546 2.13967 -9.33984 -1.19836 -0.883106 -6.46547 -8.66383 0.592832 -0.0 0.0 0.0 -0.0 0.0 0.0 4.58351e-15 8.28992e-14 6.27104e-15 71.5401 -17.4654 3.2947 -4.64358 -1.47284 8.07426 -0.0315926 5.0574 0.712652 -6.84258e-13 1.21789e-09 -2.36152e-09 -1.14218e-11 2.10653e-09 -4.08133e-09 -6.84928e-13 1.21789e-09 -2.36152e-09 7.73091 5.47488 0.417314 -6.85021e-13 1.21789e-09 -2.36152e-09 2.90554 0.965183 0.102902 -6.78433e-13 1.21789e-09 -2.36151e-09 10.2786 0.731801 0.0259123 -6.92165e-13 1.21789e-09 -2.3615e-09 2.22167 -0.733487 -0.20892 4.41187e-15 8.28861e-14 5.95422e-15 -87.0268 24.2076 11.4565 15.1645 -7.93337 -27.9279 0.0404389 5.72995 -0.808014 3.54339e-10 5.77428e-10 1.65452e-09 6.23452e-10 9.98667e-10 2.86145e-09 3.54335e-10 5.77428e-10 1.65453e-09 -7.73091 5.47488 -0.417314 3.54341e-10 5.77429e-10 1.65452e-09 -2.90554 0.965183 -0.102902 3.54333e-10 5.77431e-10 1.65452e-09 -10.2786 0.731801 -0.0259123 3.54343e-10 5.77434e-10 1.65451e-09 -2.22167 -0.733487 0.20892 -2.03217e-16 0.0 -3.88251e-19 11.3503 7.96106 3.47661 0.0820257 4.81251 0.686974 -3.92463 -11.414 -15.5467 2.03217e-16 0.0 3.88251e-19 2.57684 -44.4083 -2.98166 0.114259 22.2781 -0.516123 -0.00019911 -8.15945 -2.39274
-0.248455 81.9737 -174.269 -5.3839 -0.2542 11.413 7.83493 5.46181 7.30608 4.76086 -1.39746 2.18416 -9.35416 -1.12648 -0.885269 -6.3313 -8.63371 0.593114 -0.0 0.0 0.0 -0.0 0.0 0.0 -5.04573e-14 1.50857e-13 5.43358e-15 71.5434 -17.4462 3.29866 -4.60697 -1.4584 8.00951 -0.0302306 4.9481 0.697169 -6.22007e-11 1.91017e-09 -3.67212e-09 -1.23771e-10 3.30327e-09 -6.34598e-09 -6.22026e-11 1.91017e-09 -3.67212e-09 7.73091 5.47488 0.417314 -6.22022e-11 1.91017e-09 -3.67212e-09 2.90554 0.965183 0.102902 -6.21961e-11 1.91017e-09 -3.67212e-09 10.2786 0.731801 0.0259123 -6.22097e-11 1.91017e-09 -3.67211e-09 2.22167 -0.733487 -0.20892 -5.06032e-14 1.50847e-13 5.11676e-15 -87.0164 24.0491 11.5837 15.0845 -7.86352 -27.7627 0.0422582 5.85665 -0.826007 2.47641e-10 9.23029e-10 2.45032e-09 4.42758e-10 1.59668e-09 4.23867e-09 2.4764e-10 9.23031e-10 2.45032e-09 -7.73091 5.47488 -0.417314 2.47645e-10 9.23033e-10 2.45032e-09 -2.90554 0.965183 -0.102902 2.47634e-10 9.23035e-10 2.45032e-09 -10.2786 0.731801 -0.0259123 2.47644e-10 9.23037e-10 2.45031e-09 -2.22167 -0.733487 0.20892 -2.03217e-16 0.0 -3.88251e-19 11.2708 8.30291 3.50388 0.0801415 4.81779 0.683372 -3.77445 -11.007 -15.3533 2.03217e-16 0.0 3.88251e-19 2.46134 -44.0095 -3.37395 0.114574 22.3228 -0.516723 -0.0207503 -7.90706 -2.5137
